<svg width="41" height="26" viewBox="0 0 41 26" fill="none" xmlns="http://www.w3.org/2000/svg">
<line x1="22.5" y1="4.5" x2="39.5" y2="4.5" stroke="#FFC800" stroke-width="3" stroke-linecap="round"/>
<line x1="24.5" y1="14.5" x2="39.5" y2="14.5" stroke="#FFC800" stroke-width="3" stroke-linecap="round"/>
<line x1="2.5" y1="24.5" x2="39.5" y2="24.5" stroke="#FFC800" stroke-width="3" stroke-linecap="round"/>
<g clip-path="url(#clip0_142_1249)">
<path d="M10.1005 4.5253C10.2859 6.03538 9.52794 7.37842 8.40842 7.52225C7.28955 7.66278 6.2313 6.55321 6.04621 5.04147C5.8604 3.53166 6.61829 2.19068 7.73768 2.0475C8.857 1.90466 9.91532 3.0139 10.1005 4.5253ZM5.30985 7.21752C5.70979 8.41053 5.31746 9.62963 4.4281 9.93575C3.53907 10.2454 2.49293 9.52678 2.09169 8.33007C1.69545 7.10684 2.08427 5.91801 2.97246 5.61165C3.8615 5.30203 4.90763 6.02062 5.30985 7.21752ZM2.97362 13.724C5.59926 9.38256 8.861 8.79098 10.204 9.05571C11.547 9.32045 14.3403 11.1056 15.1223 16.1188C15.1761 16.4629 15.1602 16.8175 15.0924 17.1617L15.0819 17.2147C14.9136 18.0687 14.0976 18.6266 13.2586 18.4612C12.8846 18.3875 12.523 18.268 12.1804 18.1042L9.46226 16.8119C8.96025 16.5823 8.46922 16.4855 7.94689 16.5132L4.94169 16.6773C4.56246 16.6989 4.18261 16.6721 3.80865 16.5984C2.97064 16.4332 2.4264 15.6072 2.59475 14.7532L2.60518 14.7002C2.67305 14.356 2.79294 14.022 2.97362 13.724ZM15.2126 12.0616C14.5072 11.4411 14.6069 10.1643 15.4297 9.21233C16.2563 8.25767 17.4982 7.99009 18.2029 8.61387C18.9083 9.23434 18.8145 10.4813 17.9859 11.4631C17.1592 12.4178 15.9173 12.6854 15.2126 12.0616ZM12.1871 8.2671C11.2059 7.70918 11.0143 6.17897 11.7589 4.85222C12.5038 3.52414 13.9039 2.8995 14.8853 3.45644C15.8666 4.0137 16.0586 5.54192 15.314 6.86834C14.5691 8.19675 13.1689 8.82172 12.1871 8.2671Z" fill="#FFC800"/>
</g>
<defs>
<clipPath id="clip0_142_1249">
<rect width="16.97" height="17.2743" fill="white" transform="translate(3.34082) rotate(11.1511)"/>
</clipPath>
</defs>
</svg>
