<svg width="22" height="22" viewBox="0 0 22 22" fill="none" xmlns="http://www.w3.org/2000/svg">
<path d="M11 0C4.93078 0 0 4.93867 0 11.0176C0 16.536 4.06377 21.1029 9.35645 21.8993L9.93066 21.9863V13.3045H7.33203V11.5419H9.93066V9.20123C9.93066 7.75988 10.276 6.81059 10.8477 6.21501C11.4193 5.61943 12.264 5.31905 13.4395 5.31905C14.3794 5.31905 14.745 5.37609 15.0928 5.41882V6.86155H13.8691C13.1748 6.86155 12.6052 7.24954 12.3096 7.76632C12.0139 8.2831 11.9219 8.90013 11.9219 9.5289V11.5409H14.9834L14.7109 13.3035H11.9219V22L12.4893 21.9227C17.8572 21.1936 22 16.5899 22 11.0176C22 4.93867 17.0692 0 11 0ZM11 1.0016C16.5288 1.0016 21 5.47998 21 11.0176C21 15.8903 17.5179 19.8977 12.9219 20.7998V14.3051H15.5684L16.1494 10.5393H12.9219V9.5289C12.9219 9.00933 13.0168 8.5438 13.1768 8.26418C13.3367 7.98457 13.4909 7.86315 13.8691 7.86315H16.0928V4.51209L15.6592 4.45341C15.3593 4.41276 14.6746 4.31745 13.4395 4.31745C12.0879 4.31745 10.9278 4.68621 10.127 5.52054C9.32612 6.35487 8.93066 7.5972 8.93066 9.20123V10.5403H6.33203V14.3061H8.93066V20.7685C4.4085 19.8091 1 15.8375 1 11.0176C1 5.47998 5.47122 1.0016 11 1.0016Z" fill="white"/>
</svg>
