<svg width="36" height="45" viewBox="0 0 36 45" fill="none" xmlns="http://www.w3.org/2000/svg">
<g clip-path="url(#clip0_182_512)">
<path d="M14.1214 6.28121C14.3888 8.36749 13.331 10.2187 11.76 10.412C10.1899 10.6008 8.69903 9.06356 8.43208 6.975C8.16413 4.88909 9.22183 3.04076 10.7927 2.8483C12.3634 2.65629 13.8544 4.19311 14.1214 6.28121ZM7.40853 9.97664C7.97561 11.6261 7.43055 13.3078 6.18342 13.7264C4.93677 14.1498 3.46474 13.1525 2.89582 11.498C2.33379 9.80682 2.87408 8.16688 4.11956 7.74798C5.36621 7.32456 6.83825 8.32185 7.40853 9.97664ZM4.15928 18.9511C7.825 12.9679 12.4013 12.1663 14.288 12.5382C16.1747 12.9101 20.1045 15.3884 21.2259 22.3153C21.303 22.7908 21.2825 23.2803 21.1888 23.7554L21.1744 23.8285C20.9421 25.0071 19.7991 25.7737 18.6205 25.5414C18.0951 25.4378 17.587 25.2712 17.1051 25.0433L13.2831 23.2459C12.5773 22.9264 11.8875 22.7904 11.1543 22.8262L6.93611 23.0388C6.40381 23.0668 5.87042 23.0281 5.34507 22.9245C4.16783 22.6925 3.39989 21.5492 3.63222 20.3706L3.64663 20.2975C3.74028 19.8224 3.90702 19.3617 4.15928 18.9511ZM21.3337 16.7128C20.3405 15.8526 20.4744 14.0898 21.625 12.779C22.7811 11.4645 24.5233 11.1008 25.5155 11.9655C26.5087 12.8257 26.3829 14.5474 25.2242 15.8993C24.0681 17.2138 22.3259 17.5775 21.3337 16.7128ZM17.0684 11.4584C15.6883 10.6833 15.4121 8.5692 16.4512 6.74047C17.4907 4.90991 19.4534 4.05386 20.8337 4.82759C22.214 5.60177 22.4907 7.71314 21.4517 9.54141C20.4121 11.3724 18.4494 12.2289 17.0684 11.4584Z" fill="#333333"/>
</g>
<g clip-path="url(#clip1_182_512)">
<path d="M26.745 30.2046C26.9233 31.5959 26.2179 32.8303 25.1703 32.9593C24.1233 33.0852 23.1291 32.06 22.9511 30.6673C22.7724 29.2763 23.4777 28.0437 24.5252 27.9154C25.5727 27.7874 26.5669 28.8122 26.745 30.2046ZM22.2685 32.6689C22.6467 33.7688 22.2832 34.8903 21.4516 35.1694C20.6202 35.4518 19.6386 34.7867 19.2592 33.6834C18.8844 32.5557 19.2447 31.4621 20.0753 31.1827C20.9066 30.9004 21.8882 31.5654 22.2685 32.6689ZM20.1018 38.6535C22.5462 34.6636 25.598 34.1291 26.8561 34.3771C28.1142 34.6251 30.7348 36.2778 31.4826 40.8969C31.534 41.214 31.5203 41.5404 31.4579 41.8573L31.4483 41.906C31.2933 42.692 30.5311 43.2031 29.7452 43.0482C29.3949 42.9792 29.056 42.8681 28.7346 42.7161L26.186 41.5175C25.7153 41.3044 25.2553 41.2138 24.7664 41.2376L21.9535 41.3794C21.5985 41.398 21.2428 41.3722 20.8925 41.3032C20.1075 41.1484 19.5954 40.3861 19.7503 39.6001L19.7599 39.5514C19.8224 39.2345 19.9335 38.9273 20.1018 38.6535ZM31.5545 37.1609C30.8922 36.5873 30.9815 35.4118 31.7487 34.5377C32.5197 33.6611 33.6815 33.4186 34.3431 33.9952C35.0054 34.5688 34.9215 35.7169 34.1489 36.6184C33.3779 37.495 32.2161 37.7375 31.5545 37.1609ZM28.7102 33.657C27.7898 33.1402 27.6057 31.7304 28.2986 30.5109C28.9918 29.2902 30.3006 28.7193 31.2211 29.2353C32.1415 29.7515 32.326 31.1595 31.6332 32.3787C30.9399 33.5997 29.6311 34.1709 28.7102 33.657Z" fill="#333333"/>
</g>
<defs>
<clipPath id="clip0_182_512">
<rect width="23.8397" height="23.8397" fill="white" transform="translate(4.61035) rotate(11.1511)"/>
</clipPath>
<clipPath id="clip1_182_512">
<rect width="15.8974" height="15.8974" fill="white" transform="translate(20.4026 26.016) rotate(11.1511)"/>
</clipPath>
</defs>
</svg>
