<svg width="46" height="57" viewBox="0 0 46 57" fill="none" xmlns="http://www.w3.org/2000/svg">
<g clip-path="url(#clip0_132_162)">
<path d="M17.7707 7.9044C18.1072 10.5298 16.7761 12.8593 14.7991 13.1026C12.8233 13.3402 10.9471 11.4057 10.6112 8.77746C10.274 6.15254 11.605 3.82659 13.5818 3.58439C15.5584 3.34277 17.4347 5.27671 17.7707 7.9044ZM9.32317 12.5548C10.0368 14.6304 9.35088 16.7467 7.78149 17.2734C6.21269 17.8062 4.36027 16.5512 3.64435 14.4692C2.93708 12.3411 3.61699 10.2773 5.18431 9.75018C6.75311 9.21735 8.60552 10.4723 9.32317 12.5548ZM5.23429 23.8483C9.84726 16.319 15.6062 15.3102 17.9804 15.7782C20.3546 16.2462 25.2999 19.365 26.7111 28.0818C26.8081 28.6802 26.7822 29.2962 26.6644 29.8941L26.6462 29.986C26.3539 31.4692 24.9155 32.4339 23.4324 32.1415C22.7713 32.0112 22.1318 31.8015 21.5254 31.5148L16.7158 29.2528C15.8276 28.8508 14.9595 28.6797 14.0369 28.7248L8.72867 28.9923C8.05883 29.0275 7.3876 28.9788 6.7265 28.8485C5.24504 28.5564 4.27867 27.1178 4.57103 25.6346L4.58916 25.5426C4.70701 24.9447 4.91684 24.365 5.23429 23.8483ZM26.8467 21.0315C25.5969 19.9491 25.7654 17.7308 27.2133 16.0812C28.6681 14.4271 30.8605 13.9694 32.1092 15.0576C33.359 16.1401 33.2006 18.3066 31.7425 20.0079C30.2877 21.6621 28.0953 22.1197 26.8467 21.0315ZM21.4792 14.4194C19.7424 13.444 19.3949 10.7836 20.7026 8.48233C22.0107 6.17873 24.4805 5.10148 26.2175 6.07514C27.9545 7.04938 28.3027 9.70634 26.9952 12.0071C25.6869 14.3112 23.217 15.3891 21.4792 14.4194Z" fill="#FFC800"/>
</g>
<g clip-path="url(#clip1_132_162)">
<path d="M33.6563 38.0098C33.8807 39.7605 32.993 41.314 31.6747 41.4762C30.3571 41.6347 29.106 40.3446 28.882 38.592C28.6571 36.8416 29.5447 35.2905 30.8629 35.129C32.181 34.9679 33.4322 36.2575 33.6563 38.0098ZM28.0231 41.1109C28.4989 42.495 28.0415 43.9062 26.995 44.2575C25.9488 44.6128 24.7136 43.7759 24.2361 42.3875C23.7645 40.9684 24.2179 39.5922 25.2631 39.2407C26.3092 38.8853 27.5445 39.7222 28.0231 41.1109ZM25.2964 48.6419C28.3725 43.621 32.2129 42.9483 33.7961 43.2604C35.3794 43.5725 38.6771 45.6523 39.6181 51.465C39.6828 51.8641 39.6656 52.2749 39.587 52.6736L39.5749 52.7349C39.3799 53.7239 38.4208 54.3672 37.4317 54.1723C36.9909 54.0854 36.5644 53.9455 36.1601 53.7543L32.9528 52.246C32.3605 51.9779 31.7816 51.8638 31.1664 51.8938L27.6266 52.0722C27.1799 52.0957 26.7323 52.0632 26.2915 51.9763C25.3036 51.7816 24.6591 50.8222 24.8541 49.8331L24.8662 49.7718C24.9448 49.3731 25.0847 48.9865 25.2964 48.6419ZM39.7086 46.7636C38.8751 46.0418 38.9875 44.5625 39.953 43.4625C40.9232 42.3594 42.3852 42.0542 43.2179 42.7799C44.0513 43.5017 43.9457 44.9465 42.9734 46.081C42.0032 47.1841 40.5412 47.4893 39.7086 46.7636ZM36.1293 42.3543C34.9711 41.7039 34.7394 39.9298 35.6114 38.3952C36.4837 36.859 38.1307 36.1407 39.289 36.79C40.4473 37.4396 40.6795 39.2114 39.8076 40.7456C38.9352 42.2822 37.2881 43.0009 36.1293 42.3543Z" fill="#FFC800"/>
</g>
<defs>
<clipPath id="clip0_132_162">
<rect width="30" height="30" fill="white" transform="translate(5.80194) rotate(11.1511)"/>
</clipPath>
<clipPath id="clip1_132_162">
<rect width="20.0054" height="20.0054" fill="white" transform="translate(25.6749 32.7388) rotate(11.1511)"/>
</clipPath>
</defs>
</svg>
