<svg width="22" height="22" viewBox="0 0 22 22" fill="none" xmlns="http://www.w3.org/2000/svg">
<path d="M11 0C4.93053 0 0 4.93053 0 11C0 17.0695 4.93053 22 11 22C17.0695 22 22 17.0695 22 11C22 4.93053 17.0695 0 11 0ZM11 0.956522C16.5525 0.956522 21.0435 5.44747 21.0435 11C21.0435 16.5525 16.5525 21.0435 11 21.0435C5.44747 21.0435 0.956522 16.5525 0.956522 11C0.956522 5.44747 5.44747 0.956522 11 0.956522ZM15.3464 5.75594C15.0193 5.75594 14.6517 5.83171 14.2217 5.98667C13.5541 6.22723 5.70122 9.56147 4.80783 9.94073C4.29705 10.1579 3.34596 10.5617 3.34596 11.525C3.34596 12.1634 3.72008 12.6201 4.45661 12.8832C4.85261 13.0242 5.79313 13.3093 6.33882 13.4595C6.5703 13.5231 6.81629 13.5557 7.06929 13.5557C7.56429 13.5557 8.06244 13.4324 8.4527 13.2148C8.44935 13.2951 8.45154 13.3763 8.46111 13.4576C8.51993 13.9598 8.82959 14.4321 9.28872 14.7215C9.58907 14.9109 12.0423 16.5546 12.4086 16.8157C12.9232 17.1835 13.4921 17.3781 14.0526 17.3781C15.124 17.3781 15.4834 16.2719 15.6565 15.7406C15.9076 14.9691 16.8478 8.69581 16.954 7.58959C17.0262 6.83155 16.7103 6.20733 16.1086 5.91941C15.8833 5.81085 15.6262 5.75594 15.3464 5.75594ZM15.3464 6.71247C15.4779 6.71247 15.5953 6.73422 15.6948 6.78252C15.921 6.89109 16.0361 7.13311 16.0012 7.49898C15.8854 8.70563 14.9475 14.8304 14.7476 15.4445C14.5764 15.9696 14.396 16.4215 14.0526 16.4215C13.7093 16.4215 13.3341 16.3012 12.9644 16.0367C12.5947 15.7727 10.1397 14.1263 9.79874 13.9116C9.49983 13.7232 9.18348 13.2534 9.62874 12.7991C9.99556 12.4251 12.7781 9.72445 13.0158 9.48675C13.1928 9.30932 13.11 9.09536 12.9364 9.09536C12.8766 9.09536 12.805 9.12056 12.7309 9.1813C12.4401 9.419 8.3862 12.1317 8.03516 12.3498C7.80272 12.4942 7.44281 12.5983 7.06929 12.5983C6.91003 12.5983 6.74879 12.5792 6.59383 12.5366C6.05436 12.3879 5.14139 12.1109 4.77887 11.9817C4.43022 11.8574 4.30341 11.7383 4.30341 11.525C4.30341 11.2217 4.73141 11.0124 5.1824 10.8207C5.65875 10.6183 13.9012 7.11817 14.5459 6.88621C14.8443 6.77812 15.1173 6.71247 15.3464 6.71247Z" fill="white"/>
</svg>
